<svg xmlns="http://www.w3.org/2000/svg" width="22.295" height="18.134" viewBox="0 0 22.295 18.134">
  <g id="ico" transform="translate(-4730.218 -1833.316)">
    <path id="Path_3070" data-name="Path 3070" d="M4752.358,1841.793a.528.528,0,0,1,.155.387.371.371,0,0,1-.116.271l-.968,1.2a.444.444,0,0,1-.348.193.419.419,0,0,1-.31-.116l-9.1-7.509a.658.658,0,0,0-.619,0l-9.1,7.509a.372.372,0,0,1-.271.116.475.475,0,0,1-.387-.193l-.967-1.2a.37.37,0,0,1-.117-.271.525.525,0,0,1,.155-.387l9.792-8.051a1.9,1.9,0,0,1,1.2-.426,1.747,1.747,0,0,1,1.162.426l3.483,2.864v-2.826a.464.464,0,0,1,.465-.465h2.167a.462.462,0,0,1,.464.465v5.38Z" transform="translate(0 0)" fill="#ec555c"/>
    <path id="Path_3071" data-name="Path 3071" d="M4744.84,1842.305a.624.624,0,0,1,.619,0l7.123,6.244v6.737a.664.664,0,0,1-.174.473.588.588,0,0,1-.446.185h-4.335a.557.557,0,0,1-.445-.206.681.681,0,0,1-.174-.452v-3.944a.77.77,0,0,0-.077-.328.536.536,0,0,0-.232-.247.663.663,0,0,0-.31-.082h-2.477a.585.585,0,0,0-.445.185.66.66,0,0,0-.174.472v3.944a.685.685,0,0,1-.174.452.561.561,0,0,1-.446.206h-4.335a.584.584,0,0,1-.444-.185.661.661,0,0,1-.175-.473v-6.737Z" transform="translate(-3.784 -4.494)" fill="#006fff"/>
  </g>
</svg>
